<mxfile host="app.diagrams.net" modified="2020-05-30T13:06:18.655Z" agent="5.0 (Windows NT 10.0; Win64; x64) AppleWebKit/537.36 (KHTML, like Gecko) Chrome/81.0.4044.113 Safari/537.36" etag="5Oae4SW1WYNczBXdontW" version="13.1.8" type="github">
  <diagram id="WkWgWsOHCXf6KfXvRGAJ" name="第 1 页">
    <mxGraphModel dx="2249" dy="804" grid="1" gridSize="10" guides="1" tooltips="1" connect="1" arrows="1" fold="1" page="1" pageScale="1" pageWidth="827" pageHeight="1169" math="0" shadow="0">
      <root>
        <mxCell id="0" />
        <mxCell id="1" parent="0" />
        <mxCell id="lRrBh9GjhRoI-WRk5Pmv-3" value="" style="edgeStyle=orthogonalEdgeStyle;rounded=0;orthogonalLoop=1;jettySize=auto;html=1;fontFamily=Verdana;fontSize=15;" edge="1" parent="1" source="lRrBh9GjhRoI-WRk5Pmv-1" target="lRrBh9GjhRoI-WRk5Pmv-2">
          <mxGeometry relative="1" as="geometry" />
        </mxCell>
        <mxCell id="lRrBh9GjhRoI-WRk5Pmv-5" style="edgeStyle=orthogonalEdgeStyle;rounded=0;orthogonalLoop=1;jettySize=auto;html=1;exitX=0.5;exitY=1;exitDx=0;exitDy=0;entryX=0.5;entryY=0;entryDx=0;entryDy=0;fontFamily=Verdana;fontSize=15;" edge="1" parent="1" source="lRrBh9GjhRoI-WRk5Pmv-1" target="lRrBh9GjhRoI-WRk5Pmv-4">
          <mxGeometry relative="1" as="geometry" />
        </mxCell>
        <mxCell id="lRrBh9GjhRoI-WRk5Pmv-7" style="edgeStyle=orthogonalEdgeStyle;rounded=0;orthogonalLoop=1;jettySize=auto;html=1;exitX=0.5;exitY=1;exitDx=0;exitDy=0;entryX=0.5;entryY=0;entryDx=0;entryDy=0;fontFamily=Verdana;fontSize=15;" edge="1" parent="1" source="lRrBh9GjhRoI-WRk5Pmv-1" target="lRrBh9GjhRoI-WRk5Pmv-6">
          <mxGeometry relative="1" as="geometry" />
        </mxCell>
        <mxCell id="lRrBh9GjhRoI-WRk5Pmv-1" value="提交任务&lt;br style=&quot;font-size: 15px;&quot;&gt;execute（）" style="html=1;whiteSpace=wrap;comic=1;strokeWidth=2;fontFamily=Verdana;fontStyle=1;fillColor=#fff2cc;strokeColor=#d6b656;fontSize=15;" vertex="1" parent="1">
          <mxGeometry x="160" y="120" width="120" height="60" as="geometry" />
        </mxCell>
        <mxCell id="lRrBh9GjhRoI-WRk5Pmv-16" style="edgeStyle=orthogonalEdgeStyle;rounded=0;orthogonalLoop=1;jettySize=auto;html=1;exitX=0.5;exitY=1;exitDx=0;exitDy=0;entryX=0;entryY=0.5;entryDx=0;entryDy=0;fontFamily=Verdana;fontSize=15;" edge="1" parent="1" source="lRrBh9GjhRoI-WRk5Pmv-2" target="lRrBh9GjhRoI-WRk5Pmv-14">
          <mxGeometry relative="1" as="geometry" />
        </mxCell>
        <mxCell id="lRrBh9GjhRoI-WRk5Pmv-2" value="加入阻塞队列" style="html=1;whiteSpace=wrap;comic=1;strokeWidth=2;fontFamily=Verdana;fontStyle=1;fillColor=#e1d5e7;strokeColor=#9673a6;fontSize=15;" vertex="1" parent="1">
          <mxGeometry x="160" y="230" width="120" height="60" as="geometry" />
        </mxCell>
        <mxCell id="lRrBh9GjhRoI-WRk5Pmv-10" style="edgeStyle=orthogonalEdgeStyle;rounded=0;orthogonalLoop=1;jettySize=auto;html=1;exitX=0;exitY=0.5;exitDx=0;exitDy=0;entryX=1;entryY=0.5;entryDx=0;entryDy=0;fontFamily=Verdana;fontSize=15;" edge="1" parent="1" source="lRrBh9GjhRoI-WRk5Pmv-4" target="lRrBh9GjhRoI-WRk5Pmv-8">
          <mxGeometry relative="1" as="geometry" />
        </mxCell>
        <mxCell id="lRrBh9GjhRoI-WRk5Pmv-13" value="" style="edgeStyle=orthogonalEdgeStyle;rounded=0;orthogonalLoop=1;jettySize=auto;html=1;fontFamily=Verdana;fontSize=15;" edge="1" parent="1" source="lRrBh9GjhRoI-WRk5Pmv-4" target="lRrBh9GjhRoI-WRk5Pmv-12">
          <mxGeometry relative="1" as="geometry" />
        </mxCell>
        <mxCell id="lRrBh9GjhRoI-WRk5Pmv-4" value="创建工作线程" style="html=1;whiteSpace=wrap;comic=1;strokeWidth=2;fontFamily=Verdana;fontStyle=1;fillColor=#e1d5e7;strokeColor=#9673a6;fontSize=15;" vertex="1" parent="1">
          <mxGeometry x="20" y="230" width="120" height="60" as="geometry" />
        </mxCell>
        <mxCell id="lRrBh9GjhRoI-WRk5Pmv-18" value="" style="edgeStyle=orthogonalEdgeStyle;rounded=0;orthogonalLoop=1;jettySize=auto;html=1;fontFamily=Verdana;fontSize=15;" edge="1" parent="1" source="lRrBh9GjhRoI-WRk5Pmv-12" target="lRrBh9GjhRoI-WRk5Pmv-17">
          <mxGeometry relative="1" as="geometry" />
        </mxCell>
        <mxCell id="lRrBh9GjhRoI-WRk5Pmv-12" value="启动工作线程&lt;br style=&quot;font-size: 15px;&quot;&gt;start（）" style="html=1;whiteSpace=wrap;comic=1;strokeWidth=2;fontFamily=Verdana;fontStyle=1;fillColor=#e1d5e7;strokeColor=#9673a6;fontSize=15;" vertex="1" parent="1">
          <mxGeometry x="20" y="330" width="120" height="60" as="geometry" />
        </mxCell>
        <mxCell id="lRrBh9GjhRoI-WRk5Pmv-21" value="" style="edgeStyle=orthogonalEdgeStyle;rounded=0;orthogonalLoop=1;jettySize=auto;html=1;fontFamily=Verdana;fontSize=15;" edge="1" parent="1" source="lRrBh9GjhRoI-WRk5Pmv-17" target="lRrBh9GjhRoI-WRk5Pmv-20">
          <mxGeometry relative="1" as="geometry" />
        </mxCell>
        <mxCell id="lRrBh9GjhRoI-WRk5Pmv-25" value="&lt;font style=&quot;font-size: 15px;&quot;&gt;Y&lt;/font&gt;" style="edgeLabel;html=1;align=center;verticalAlign=middle;resizable=0;points=[];fontFamily=Verdana;fontSize=15;" vertex="1" connectable="0" parent="lRrBh9GjhRoI-WRk5Pmv-21">
          <mxGeometry x="-0.2581" y="2" relative="1" as="geometry">
            <mxPoint x="-20.5" as="offset" />
          </mxGeometry>
        </mxCell>
        <mxCell id="lRrBh9GjhRoI-WRk5Pmv-28" style="edgeStyle=orthogonalEdgeStyle;rounded=0;orthogonalLoop=1;jettySize=auto;html=1;exitX=0.5;exitY=1;exitDx=0;exitDy=0;entryX=0.5;entryY=0;entryDx=0;entryDy=0;fontFamily=Verdana;fontSize=15;" edge="1" parent="1" source="lRrBh9GjhRoI-WRk5Pmv-17" target="lRrBh9GjhRoI-WRk5Pmv-27">
          <mxGeometry relative="1" as="geometry" />
        </mxCell>
        <mxCell id="lRrBh9GjhRoI-WRk5Pmv-32" style="edgeStyle=orthogonalEdgeStyle;rounded=0;orthogonalLoop=1;jettySize=auto;html=1;exitX=1;exitY=0.5;exitDx=0;exitDy=0;entryX=0.025;entryY=0.857;entryDx=0;entryDy=0;entryPerimeter=0;fontFamily=Verdana;fontSize=15;" edge="1" parent="1" source="lRrBh9GjhRoI-WRk5Pmv-17" target="lRrBh9GjhRoI-WRk5Pmv-14">
          <mxGeometry relative="1" as="geometry" />
        </mxCell>
        <mxCell id="lRrBh9GjhRoI-WRk5Pmv-17" value="获取任务" style="html=1;whiteSpace=wrap;comic=1;strokeWidth=2;fontFamily=Verdana;fontStyle=1;fillColor=#e1d5e7;strokeColor=#9673a6;fontSize=15;" vertex="1" parent="1">
          <mxGeometry x="20" y="440" width="120" height="60" as="geometry" />
        </mxCell>
        <mxCell id="lRrBh9GjhRoI-WRk5Pmv-24" style="edgeStyle=orthogonalEdgeStyle;rounded=0;orthogonalLoop=1;jettySize=auto;html=1;exitX=0;exitY=0.5;exitDx=0;exitDy=0;entryX=0;entryY=0.383;entryDx=0;entryDy=0;entryPerimeter=0;fontFamily=Verdana;fontSize=15;" edge="1" parent="1" source="lRrBh9GjhRoI-WRk5Pmv-20" target="lRrBh9GjhRoI-WRk5Pmv-17">
          <mxGeometry relative="1" as="geometry" />
        </mxCell>
        <mxCell id="lRrBh9GjhRoI-WRk5Pmv-20" value="执行任务&lt;br style=&quot;font-size: 15px;&quot;&gt;run（）" style="html=1;whiteSpace=wrap;comic=1;strokeWidth=2;fontFamily=Verdana;fontStyle=1;fillColor=#e1d5e7;strokeColor=#9673a6;fontSize=15;" vertex="1" parent="1">
          <mxGeometry x="-80" y="555" width="120" height="60" as="geometry" />
        </mxCell>
        <mxCell id="lRrBh9GjhRoI-WRk5Pmv-6" value="拒绝策略" style="html=1;whiteSpace=wrap;comic=1;strokeWidth=2;fontFamily=Verdana;fontStyle=1;fillColor=#e1d5e7;strokeColor=#9673a6;fontSize=15;" vertex="1" parent="1">
          <mxGeometry x="310" y="230" width="120" height="60" as="geometry" />
        </mxCell>
        <mxCell id="lRrBh9GjhRoI-WRk5Pmv-8" value="&lt;table border=&quot;1&quot; width=&quot;100%&quot; cellpadding=&quot;4&quot; style=&quot;width: 100%; height: 100%; border-collapse: collapse; font-size: 15px;&quot;&gt;&lt;tbody style=&quot;font-size: 15px;&quot;&gt;&lt;tr style=&quot;font-size: 15px;&quot;&gt;&lt;th align=&quot;center&quot; style=&quot;font-size: 15px;&quot;&gt;worker&lt;/th&gt;&lt;/tr&gt;&lt;tr style=&quot;font-size: 15px;&quot;&gt;&lt;td align=&quot;center&quot; style=&quot;font-size: 15px;&quot;&gt;&lt;b style=&quot;font-size: 15px;&quot;&gt;worker&lt;/b&gt;&lt;/td&gt;&lt;/tr&gt;&lt;tr style=&quot;font-size: 15px;&quot;&gt;&lt;td align=&quot;center&quot; style=&quot;font-size: 15px;&quot;&gt;&lt;b style=&quot;font-size: 15px;&quot;&gt;...&lt;/b&gt;&lt;/td&gt;&lt;/tr&gt;&lt;/tbody&gt;&lt;/table&gt;" style="text;html=1;strokeColor=#82b366;fillColor=#d5e8d4;overflow=fill;fontFamily=Verdana;fontSize=15;" vertex="1" parent="1">
          <mxGeometry x="-110" y="190" width="80" height="140" as="geometry" />
        </mxCell>
        <mxCell id="lRrBh9GjhRoI-WRk5Pmv-11" value="&lt;font style=&quot;font-size: 15px;&quot;&gt;Workers&lt;/font&gt;" style="text;html=1;align=center;verticalAlign=middle;resizable=0;points=[];autosize=1;fontFamily=Verdana;fontSize=15;" vertex="1" parent="1">
          <mxGeometry x="-110" y="150" width="80" height="20" as="geometry" />
        </mxCell>
        <mxCell id="lRrBh9GjhRoI-WRk5Pmv-14" value="&lt;table border=&quot;1&quot; width=&quot;100%&quot; cellpadding=&quot;4&quot; style=&quot;width: 100%; height: 100%; border-collapse: collapse; font-size: 15px;&quot;&gt;&lt;tbody style=&quot;font-size: 15px;&quot;&gt;&lt;tr style=&quot;font-size: 15px;&quot;&gt;&lt;th align=&quot;center&quot; style=&quot;font-size: 15px;&quot;&gt;Runnable&lt;/th&gt;&lt;/tr&gt;&lt;tr style=&quot;font-size: 15px;&quot;&gt;&lt;td align=&quot;center&quot; style=&quot;font-size: 15px;&quot;&gt;&lt;span style=&quot;font-weight: 700; font-size: 15px;&quot;&gt;Runnable&lt;/span&gt;&lt;br style=&quot;font-size: 15px;&quot;&gt;&lt;/td&gt;&lt;/tr&gt;&lt;tr style=&quot;font-size: 15px;&quot;&gt;&lt;td align=&quot;center&quot; style=&quot;font-size: 15px;&quot;&gt;&lt;b style=&quot;font-size: 15px;&quot;&gt;...&lt;/b&gt;&lt;/td&gt;&lt;/tr&gt;&lt;/tbody&gt;&lt;/table&gt;" style="text;html=1;strokeColor=#82b366;fillColor=#d5e8d4;overflow=fill;fontFamily=Verdana;fontSize=15;" vertex="1" parent="1">
          <mxGeometry x="330" y="350" width="100" height="140" as="geometry" />
        </mxCell>
        <mxCell id="lRrBh9GjhRoI-WRk5Pmv-15" value="&lt;font style=&quot;font-size: 15px;&quot;&gt;WorkQueues&lt;br style=&quot;font-size: 15px;&quot;&gt;&lt;/font&gt;" style="text;html=1;align=center;verticalAlign=middle;resizable=0;points=[];autosize=1;fontFamily=Verdana;fontSize=15;" vertex="1" parent="1">
          <mxGeometry x="320" y="320" width="110" height="20" as="geometry" />
        </mxCell>
        <mxCell id="lRrBh9GjhRoI-WRk5Pmv-27" value="销毁线程" style="html=1;whiteSpace=wrap;comic=1;strokeWidth=2;fontFamily=Verdana;fontStyle=1;fillColor=#e1d5e7;strokeColor=#9673a6;fontSize=15;" vertex="1" parent="1">
          <mxGeometry x="130" y="554.5" width="120" height="60" as="geometry" />
        </mxCell>
        <mxCell id="lRrBh9GjhRoI-WRk5Pmv-29" value="&lt;font style=&quot;font-size: 15px;&quot;&gt;N&lt;/font&gt;" style="edgeLabel;html=1;align=center;verticalAlign=middle;resizable=0;points=[];fontFamily=Verdana;fontSize=15;" vertex="1" connectable="0" parent="1">
          <mxGeometry x="150" y="530" as="geometry">
            <mxPoint x="-20.5" as="offset" />
          </mxGeometry>
        </mxCell>
      </root>
    </mxGraphModel>
  </diagram>
</mxfile>
